<?xml version="1.0" standalone="no"?>
<!DOCTYPE svg PUBLIC "-//W3C//DTD SVG 1.0//EN" "http://www.w3.org/TR/2001/REC-SVG-20010904/DTD/svg10.dtd">
<svg xmlns="http://www.w3.org/2000/svg" xmlns:xlink="http://www.w3.org/1999/xlink" id="body_-1426364630_25537" width="3175.6801" height="4488.9599">

<g transform="matrix(2135.2212 0 0 -2135.2212 1585.9931 2241.7255)" >
    <g>
            <path d="M-0.461764 -0.277235L-0.47376099 -0.192723L-0.68848699 -0.24556z" stroke="#212256" stroke-width="0.001" fill="#212256" />
            <path d="M0.176622 -0.60032999L0.16385899 -0.53615599L0.091216996 -0.57897901z" stroke="#212256" stroke-width="0.001" fill="#212256" />
            <path d="M0.64133 -0.31619098L0.54038298 -0.17113499L0.45989999 -0.32808798z" stroke="#212256" stroke-width="0.001" fill="#212256" />
            <path d="M0.73508298 0.130446L0.684062 0.27969399L0.54931199 0.12017499z" stroke="#212256" stroke-width="0.001" fill="#212256" />
            <path d="M0.298031 0.061393998L0.37054198 0.320367L0.25500398 0.11022099z" stroke="#212256" stroke-width="0.001" fill="#212256" />
            <path d="M0.71722197 -0.070843003L0.495945 -0.044482998L0.53088402 -0.096997998z" stroke="#212256" stroke-width="0.001" fill="#212256" />
            <path d="M0.44177401 -0.55223298L0.41630399 -0.35275799L0.35762 -0.38860198z" stroke="#212256" stroke-width="0.001" fill="#212256" />
            <path d="M0.110674 0.33362299L0.28237399 0.56603002L0.081009998 0.397549z" stroke="#212256" stroke-width="0.001" fill="#212256" />
            <path d="M0.28808099 -0.099270001L0.26900199 0.063995003L0.2167 -0.14908799z" stroke="#212256" stroke-width="0.001" fill="#212256" />
            <path d="M-0.080807 -0.48325899L-0.053592998 -0.39055499L-0.130557 -0.36268299z" stroke="#212256" stroke-width="0.001" fill="#212256" />
            <path d="M0.082854002 -0.86813199L-0.076451003 -0.63343799L-0.132032 -0.74929702z" stroke="#212256" stroke-width="0.001" fill="#212256" />
            <path d="M-0.42993798 -0.155448L-0.37551701 0.068930998L-0.42039901 0.046672001z" stroke="#212256" stroke-width="0.001" fill="#212256" />
            <path d="M-0.31074699 -0.186102L-0.42993798 -0.155448L-0.37719801 -0.18828199z" stroke="#212256" stroke-width="0.001" fill="#212256" />
            <path d="M-0.55708199 0.229405L-0.70606899 0.34161901L-0.68703001 0.250519z" stroke="#212256" stroke-width="0.001" fill="#212256" />
            <path d="M-0.42048001 -0.46875301L-0.45974099 -0.344224L-0.47341999 -0.56492102z" stroke="#212256" stroke-width="0.001" fill="#212256" />
            <path d="M0.59373497 0.50290197L0.57409602 0.58580297L0.52133202 0.596322z" stroke="#212256" stroke-width="0.001" fill="#212256" />
            <path d="M-0.251836 0.59175997L0.071617998 0.69374299L-0.069216996 0.86305499z" stroke="#212256" stroke-width="0.001" fill="#212256" />
            <path d="M-0.51266402 0.73357999L-0.40306499 0.74671101L-0.46911001 0.75573599z" stroke="#212256" stroke-width="0.001" fill="#212256" />
            <path d="M-0.519414 0.64599502L-0.40306499 0.74671101L-0.51266402 0.73357999z" stroke="#212256" stroke-width="0.001" fill="#212256" />
            <path d="M-0.251836 0.59175997L-0.364111 0.76682198L-0.40306499 0.74671101z" stroke="#212256" stroke-width="0.001" fill="#212256" />
            <path d="M-0.251836 0.59175997L-0.069216996 0.86305499L-0.211838 0.82892501z" stroke="#212256" stroke-width="0.001" fill="#212256" />
            <path d="M-0.211838 0.82892501L-0.069216996 0.86305499L-0.148815 0.90033102z" stroke="#212256" stroke-width="0.001" fill="#212256" />
            <path d="M0.28237399 0.56603002L0.59373497 0.50290197L0.49557799 0.61909198z" stroke="#212256" stroke-width="0.001" fill="#212256" />
            <path d="M0.28237399 0.56603002L0.403416 0.69436901L0.319927 0.74580097z" stroke="#212256" stroke-width="0.001" fill="#212256" />
            <path d="M0.28237399 0.56603002L0.49557799 0.61909198L0.403416 0.69436901z" stroke="#212256" stroke-width="0.001" fill="#212256" />
            <path d="M-0.43107101 -0.40738499L-0.45974099 -0.344224L-0.42048001 -0.46875301z" stroke="#212256" stroke-width="0.001" fill="#212256" />
            <path d="M-0.461764 -0.277235L-0.68848699 -0.24556L-0.63315498 -0.39307799z" stroke="#212256" stroke-width="0.001" fill="#212256" />
            <path d="M-0.45974099 -0.344224L-0.63315498 -0.39307799L-0.559933 -0.44807401z" stroke="#212256" stroke-width="0.001" fill="#212256" />
            <path d="M-0.55708199 0.229405L-0.71382802 -0.014644999L-0.70447999 -0.139559z" stroke="#212256" stroke-width="0.001" fill="#212256" />
            <path d="M-0.55708199 0.229405L-0.71192997 0.10209099L-0.71382802 -0.014644999z" stroke="#212256" stroke-width="0.001" fill="#212256" />
            <path d="M-0.70116001 0.469426L-0.73891001 0.43323099L-0.72760099 0.35905599z" stroke="#212256" stroke-width="0.001" fill="#212256" />
            <path d="M-0.70606899 0.34161901L-0.70116001 0.469426L-0.72760099 0.35905599z" stroke="#212256" stroke-width="0.001" fill="#212256" />
            <path d="M-0.55708199 0.229405L-0.70116001 0.469426L-0.70606899 0.34161901z" stroke="#212256" stroke-width="0.001" fill="#212256" />
            <path d="M-0.16464699 -0.026633L-0.17063699 0.053376L-0.259981 -0.107386z" stroke="#212256" stroke-width="0.001" fill="#212256" />
            <path d="M-0.42993798 -0.155448L-0.55708199 0.229405L-0.47376099 -0.192723z" stroke="#212256" stroke-width="0.001" fill="#212256" />
            <path d="M-0.553586 0.603666L-0.40306499 0.74671101L-0.519414 0.64599502z" stroke="#212256" stroke-width="0.001" fill="#212256" />
            <path d="M-0.378697 0.35515201L-0.553586 0.603666L-0.55708199 0.229405z" stroke="#212256" stroke-width="0.001" fill="#212256" />
            <path d="M0.163643 -0.66355901L0.014449999 -0.61504101L0.082854002 -0.86813199z" stroke="#212256" stroke-width="0.001" fill="#212256" />
            <path d="M0.17448799 -0.782655L0.163643 -0.66355901L0.082854002 -0.86813199z" stroke="#212256" stroke-width="0.001" fill="#212256" />
            <path d="M-0.12825399 -0.84607899L-0.132032 -0.74929702L-0.170934 -0.72039902z" stroke="#212256" stroke-width="0.001" fill="#212256" />
            <path d="M-0.075263999 -0.902911L0.082854002 -0.86813199L-0.132032 -0.74929702z" stroke="#212256" stroke-width="0.001" fill="#212256" />
            <path d="M-0.076451003 -0.63343799L-0.14501099 -0.611418L-0.139135 -0.64692699z" stroke="#212256" stroke-width="0.001" fill="#212256" />
            <path d="M-0.076451003 -0.63343799L-0.139135 -0.64692699L-0.132032 -0.74929702z" stroke="#212256" stroke-width="0.001" fill="#212256" />
            <path d="M-0.15324899 -0.468162L-0.130557 -0.36268299L-0.16682 -0.390776z" stroke="#212256" stroke-width="0.001" fill="#212256" />
            <path d="M0.2167 -0.14908799L0.0092799998 0.048792L0.01882 -0.066046997z" stroke="#212256" stroke-width="0.001" fill="#212256" />
            <path d="M0.10186 -0.153328L0.2167 -0.14908799L0.01882 -0.066046997z" stroke="#212256" stroke-width="0.001" fill="#212256" />
            <path d="M0.14992199 0.260452L0.37054198 0.320367L0.110674 0.33362299z" stroke="#212256" stroke-width="0.001" fill="#212256" />
            <path d="M-0.166066 0.22653199L0.051697 0.32759299L-0.168042 0.351148z" stroke="#212256" stroke-width="0.001" fill="#212256" />
            <path d="M0.063702002 0.44879201L-0.251836 0.59175997L-0.168042 0.351148z" stroke="#212256" stroke-width="0.001" fill="#212256" />
            <path d="M0.33034199 -0.62792897L0.35762 -0.38860198L0.25635901 -0.66656297z" stroke="#212256" stroke-width="0.001" fill="#212256" />
            <path d="M0.221873 -0.58741199L0.222393 -0.50116002L0.19206799 -0.56022z" stroke="#212256" stroke-width="0.001" fill="#212256" />
            <path d="M0.27131998 -0.59846401L0.270756 -0.46581101L0.221873 -0.58741199z" stroke="#212256" stroke-width="0.001" fill="#212256" />
            <path d="M0.70001 -0.192036L0.53088402 -0.096997998L0.54038298 -0.17113499z" stroke="#212256" stroke-width="0.001" fill="#212256" />
            <path d="M0.28808099 -0.099270001L0.408459 -0.037983L0.297515 0.037606999z" stroke="#212256" stroke-width="0.001" fill="#212256" />
            <path d="M0.408459 -0.037983L0.54931199 0.12017499L0.298031 0.061393998z" stroke="#212256" stroke-width="0.001" fill="#212256" />
            <path d="M0.25500398 0.11022099L0.37054198 0.320367L0.19878099 0.184263z" stroke="#212256" stroke-width="0.001" fill="#212256" />
            <path d="M0.37054198 0.320367L0.626257 0.43656298L0.28237399 0.56603002z" stroke="#212256" stroke-width="0.001" fill="#212256" />
            <path d="M0.684062 0.27969399L0.65849697 0.362515L0.626257 0.43656298z" stroke="#212256" stroke-width="0.001" fill="#212256" />
            <path d="M0.495945 -0.044482998L0.54931199 0.12017499L0.45464 -0.055860001z" stroke="#212256" stroke-width="0.001" fill="#212256" />
            <path d="M0.71848499 0.10310299L0.54931199 0.12017499L0.495945 -0.044482998z" stroke="#212256" stroke-width="0.001" fill="#212256" />
            <path d="M0.41630399 -0.35275799L0.37801399 -0.34728199L0.35762 -0.38860198z" stroke="#212256" stroke-width="0.001" fill="#212256" />
            <path d="M0.57835602 -0.44341298L0.45989999 -0.32808798L0.41630399 -0.35275799z" stroke="#212256" stroke-width="0.001" fill="#212256" />
            <path d="M0.28237399 0.56603002L0.071617998 0.69374299L0.063702002 0.44879201z" stroke="#212256" stroke-width="0.001" fill="#212256" />
            <path d="M0.26900199 0.063995003L0.1008 0.110633L0.0092799998 0.048792z" stroke="#212256" stroke-width="0.001" fill="#212256" />
            <path d="M0.163643 -0.66355901L0.176622 -0.60032999L0.091216996 -0.57897901z" stroke="#212256" stroke-width="0.001" fill="#212256" />
            <path d="M-0.168042 0.351148L-0.251836 0.59175997L-0.378697 0.35515201z" stroke="#212256" stroke-width="0.001" fill="#212256" />
            <path d="M0.071617998 0.69374299L0.16174699 0.80322498L0.042888998 0.83252698z" stroke="#212256" stroke-width="0.001" fill="#212256" />
            <path d="M0.28237399 0.56603002L0.319927 0.74580097L0.16174699 0.80322498z" stroke="#212256" stroke-width="0.001" fill="#212256" />
            <path d="M0.16385899 -0.53615599L0.18631699 -0.56490999L0.21476 -0.504413z" stroke="#212256" stroke-width="0.001" fill="#212256" />
            <path d="M-0.32761099 -0.60523098L-0.25849598 -0.53987801L-0.31341999 -0.50350898z" stroke="#212256" stroke-width="0.001" fill="#212256" />
            <path d="M-0.36981698 -0.558182L-0.31341999 -0.50350898L-0.35807299 -0.47400501z" stroke="#212256" stroke-width="0.001" fill="#212256" />
            <path d="M-0.42048001 -0.46875301L-0.35807299 -0.47400501L-0.43107101 -0.40738499z" stroke="#212256" stroke-width="0.001" fill="#212256" />
            <path d="M-0.32761099 -0.60523098L-0.26476201 -0.61597102L-0.25849598 -0.53987801z" stroke="#212256" stroke-width="0.001" fill="#212256" />
            <path d="M-0.26476201 -0.61597102L-0.19973799 -0.57688701L-0.25849598 -0.53987801z" stroke="#212256" stroke-width="0.001" fill="#212256" />
            <path d="M-0.224886 -0.65698701L-0.154925 -0.60026001L-0.19973799 -0.57688701z" stroke="#212256" stroke-width="0.001" fill="#212256" />
            <path d="M-0.26476201 -0.61597102L-0.27083399 -0.65630102L-0.24498699 -0.65028601z" stroke="#212256" stroke-width="0.001" fill="#212256" />
            <path d="M-0.24498699 -0.65028601L-0.225408 -0.688326L-0.21533299 -0.68598097z" stroke="#212256" stroke-width="0.001" fill="#212256" />
            <path d="M-0.21533299 -0.68598097L-0.225408 -0.688326L-0.20712099 -0.69745898z" stroke="#212256" stroke-width="0.001" fill="#212256" />
            <path d="M-0.38435098 0.13181799L-0.17415699 0.202213L-0.387526 0.23041799z" stroke="#212256" stroke-width="0.001" fill="#212256" />
            <path d="M-0.37551701 0.068930998L-0.17063699 0.053376L-0.38435098 0.13181799z" stroke="#212256" stroke-width="0.001" fill="#212256" />
            <path d="M-0.14887699 0.017255L-0.026652 0.010001L-0.021463999 0.034196998z" stroke="#212256" stroke-width="0.001" fill="#212256" />
            <path d="M-0.158894 -0.087099L-0.16464699 -0.026633L-0.182264 -0.087099z" stroke="#212256" stroke-width="0.001" fill="#212256" />
            <path d="M-0.064124003 -0.051031L-0.031801 -0.018147999L-0.137491 -0.073169z" stroke="#212256" stroke-width="0.001" fill="#212256" />
            <path d="M-0.031801 -0.018147999L-0.14887699 0.017255L-0.137491 -0.073169z" stroke="#212256" stroke-width="0.001" fill="#212256" />
            <path d="M-0.387526 0.23041799L-0.17119599 0.325385L-0.378697 0.35515201z" stroke="#212256" stroke-width="0.001" fill="#212256" />
            <path d="M-0.064124003 -0.051031L-0.035601999 -0.055447999L-0.031801 -0.018147999z" stroke="#212256" stroke-width="0.001" fill="#212256" />
            <path d="M-0.211838 0.82892501L-0.148815 0.90033102L-0.19959799 0.85767602z" stroke="#212256" stroke-width="0.001" fill="#212256" />
            <path d="M0.16174699 0.80322498L0.319927 0.74580097L0.25913399 0.82606202z" stroke="#212256" stroke-width="0.001" fill="#212256" />
            <path d="M-0.461764 -0.277235L-0.46467098 -0.22438L-0.47376099 -0.192723z" stroke="#212256" stroke-width="0.001" fill="#212256" />
            <path d="M0.176622 -0.60032999L0.18631699 -0.56490999L0.16385899 -0.53615599z" stroke="#212256" stroke-width="0.001" fill="#212256" />
            <path d="M0.64133 -0.31619098L0.70001 -0.192036L0.54038298 -0.17113499z" stroke="#212256" stroke-width="0.001" fill="#212256" />
            <path d="M0.73508298 0.130446L0.74063998 0.23201L0.684062 0.27969399z" stroke="#212256" stroke-width="0.001" fill="#212256" />
            <path d="M0.298031 0.061393998L0.54931199 0.12017499L0.37054198 0.320367z" stroke="#212256" stroke-width="0.001" fill="#212256" />
            <path d="M0.71722197 -0.070843003L0.71848499 0.10310299L0.495945 -0.044482998z" stroke="#212256" stroke-width="0.001" fill="#212256" />
            <path d="M0.44177401 -0.55223298L0.57835602 -0.44341298L0.41630399 -0.35275799z" stroke="#212256" stroke-width="0.001" fill="#212256" />
            <path d="M0.063702002 0.44879201L0.071617998 0.69374299L-0.251836 0.59175997z" stroke="#212256" stroke-width="0.001" fill="#212256" />
            <path d="M0.110674 0.33362299L0.37054198 0.320367L0.28237399 0.56603002z" stroke="#212256" stroke-width="0.001" fill="#212256" />
            <path d="M0.28808099 -0.099270001L0.297515 0.037606999L0.26900199 0.063995003z" stroke="#212256" stroke-width="0.001" fill="#212256" />
            <path d="M-0.080807 -0.48325899L-0.037618998 -0.45383799L-0.053592998 -0.39055499z" stroke="#212256" stroke-width="0.001" fill="#212256" />
            <path d="M0.082854002 -0.86813199L0.014449999 -0.61504101L-0.076451003 -0.63343799z" stroke="#212256" stroke-width="0.001" fill="#212256" />
            <path d="M-0.42993798 -0.155448L-0.259981 -0.107386L-0.37551701 0.068930998z" stroke="#212256" stroke-width="0.001" fill="#212256" />
            <path d="M-0.31074699 -0.186102L-0.26422101 -0.15650799L-0.42993798 -0.155448z" stroke="#212256" stroke-width="0.001" fill="#212256" />
            <path d="M-0.71192997 0.10209099L-0.55708199 0.229405L-0.68703001 0.250519z" stroke="#212256" stroke-width="0.001" fill="#212256" />
            <path d="M-0.251836 0.59175997L-0.29359701 0.81346398L-0.364111 0.76682198z" stroke="#212256" stroke-width="0.001" fill="#212256" />
            <path d="M-0.069216996 0.86305499L0.071617998 0.69374299L0.042888998 0.83252698z" stroke="#212256" stroke-width="0.001" fill="#212256" />
            <path d="M0.49557799 0.61909198L0.59373497 0.50290197L0.52133202 0.596322z" stroke="#212256" stroke-width="0.001" fill="#212256" />
            <path d="M-0.47341999 -0.56492102L-0.45974099 -0.344224L-0.559933 -0.44807401z" stroke="#212256" stroke-width="0.001" fill="#212256" />
            <path d="M-0.36441498 -0.67052298L-0.42048001 -0.46875301L-0.47341999 -0.56492102z" stroke="#212256" stroke-width="0.001" fill="#212256" />
            <path d="M-0.45974099 -0.344224L-0.461764 -0.277235L-0.63315498 -0.39307799z" stroke="#212256" stroke-width="0.001" fill="#212256" />
            <path d="M-0.68848699 -0.24556L-0.47376099 -0.192723L-0.55708199 0.229405z" stroke="#212256" stroke-width="0.001" fill="#212256" />
            <path d="M-0.68848699 -0.24556L-0.55708199 0.229405L-0.70447999 -0.139559z" stroke="#212256" stroke-width="0.001" fill="#212256" />
            <path d="M-0.718786 0.289424L-0.68703001 0.250519L-0.70606899 0.34161901z" stroke="#212256" stroke-width="0.001" fill="#212256" />
            <path d="M-0.55708199 0.229405L-0.62660598 0.50919902L-0.70116001 0.469426z" stroke="#212256" stroke-width="0.001" fill="#212256" />
            <path d="M-0.37551701 0.068930998L-0.259981 -0.107386L-0.17063699 0.053376z" stroke="#212256" stroke-width="0.001" fill="#212256" />
            <path d="M-0.259981 -0.107386L-0.182264 -0.087099L-0.16464699 -0.026633z" stroke="#212256" stroke-width="0.001" fill="#212256" />
            <path d="M-0.42993798 -0.155448L-0.42039901 0.046672001L-0.55708199 0.229405z" stroke="#212256" stroke-width="0.001" fill="#212256" />
            <path d="M-0.42993798 -0.155448L-0.26422101 -0.15650799L-0.259981 -0.107386z" stroke="#212256" stroke-width="0.001" fill="#212256" />
            <path d="M-0.42003899 0.12759299L-0.40978899 0.220173L-0.55708199 0.229405z" stroke="#212256" stroke-width="0.001" fill="#212256" />
            <path d="M-0.42039901 0.046672001L-0.42003899 0.12759299L-0.55708199 0.229405z" stroke="#212256" stroke-width="0.001" fill="#212256" />
            <path d="M-0.17119599 0.325385L-0.168042 0.351148L-0.378697 0.35515201z" stroke="#212256" stroke-width="0.001" fill="#212256" />
            <path d="M-0.55708199 0.229405L-0.395305 0.29649901L-0.378697 0.35515201z" stroke="#212256" stroke-width="0.001" fill="#212256" />
            <path d="M-0.55708199 0.229405L-0.40978899 0.220173L-0.395305 0.29649901z" stroke="#212256" stroke-width="0.001" fill="#212256" />
            <path d="M-0.553586 0.603666L-0.251836 0.59175997L-0.40306499 0.74671101z" stroke="#212256" stroke-width="0.001" fill="#212256" />
            <path d="M-0.378697 0.35515201L-0.251836 0.59175997L-0.553586 0.603666z" stroke="#212256" stroke-width="0.001" fill="#212256" />
            <path d="M0.17448799 -0.782655L0.210776 -0.64581799L0.163643 -0.66355901z" stroke="#212256" stroke-width="0.001" fill="#212256" />
            <path d="M-0.12825399 -0.84607899L-0.075263999 -0.902911L-0.132032 -0.74929702z" stroke="#212256" stroke-width="0.001" fill="#212256" />
            <path d="M-0.075263999 -0.902911L0.004102 -0.90147L0.082854002 -0.86813199z" stroke="#212256" stroke-width="0.001" fill="#212256" />
            <path d="M-0.15324899 -0.468162L-0.080807 -0.48325899L-0.130557 -0.36268299z" stroke="#212256" stroke-width="0.001" fill="#212256" />
            <path d="M0.2167 -0.14908799L0.26900199 0.063995003L0.0092799998 0.048792z" stroke="#212256" stroke-width="0.001" fill="#212256" />
            <path d="M0.042139001 -0.125769L0.10186 -0.153328L0.01882 -0.066046997z" stroke="#212256" stroke-width="0.001" fill="#212256" />
            <path d="M-0.157559 0.10982099L-0.021463999 0.034196998L0.029418999 0.21063299z" stroke="#212256" stroke-width="0.001" fill="#212256" />
            <path d="M0.029418999 0.21063299L-0.166066 0.22653199L-0.157559 0.10982099z" stroke="#212256" stroke-width="0.001" fill="#212256" />
            <path d="M0.0092799998 0.048792L0.038761999 0.087902002L-0.0065649999 0.043772999z" stroke="#212256" stroke-width="0.001" fill="#212256" />
            <path d="M0.0092799998 0.048792L0.1008 0.110633L0.038761999 0.087902002z" stroke="#212256" stroke-width="0.001" fill="#212256" />
            <path d="M0.14992199 0.260452L0.19878099 0.184263L0.37054198 0.320367z" stroke="#212256" stroke-width="0.001" fill="#212256" />
            <path d="M0.051697 0.32759299L0.063702002 0.44879201L-0.168042 0.351148z" stroke="#212256" stroke-width="0.001" fill="#212256" />
            <path d="M-0.166066 0.22653199L0.029418999 0.21063299L0.051697 0.32759299z" stroke="#212256" stroke-width="0.001" fill="#212256" />
            <path d="M0.27131998 -0.59846401L0.25635901 -0.66656297L0.35762 -0.38860198z" stroke="#212256" stroke-width="0.001" fill="#212256" />
            <path d="M0.33034199 -0.62792897L0.44177401 -0.55223298L0.35762 -0.38860198z" stroke="#212256" stroke-width="0.001" fill="#212256" />
            <path d="M0.221873 -0.58741199L0.270756 -0.46581101L0.222393 -0.50116002z" stroke="#212256" stroke-width="0.001" fill="#212256" />
            <path d="M0.27131998 -0.59846401L0.35762 -0.38860198L0.270756 -0.46581101z" stroke="#212256" stroke-width="0.001" fill="#212256" />
            <path d="M0.70001 -0.192036L0.71722197 -0.070843003L0.53088402 -0.096997998z" stroke="#212256" stroke-width="0.001" fill="#212256" />
            <path d="M0.28808099 -0.099270001L0.38343098 -0.11261499L0.408459 -0.037983z" stroke="#212256" stroke-width="0.001" fill="#212256" />
            <path d="M0.28808099 -0.099270001L0.282085 -0.19466599L0.38343098 -0.11261499z" stroke="#212256" stroke-width="0.001" fill="#212256" />
            <path d="M0.408459 -0.037983L0.45464 -0.055860001L0.54931199 0.12017499z" stroke="#212256" stroke-width="0.001" fill="#212256" />
            <path d="M0.684062 0.27969399L0.74063998 0.23201L0.72645902 0.28130799z" stroke="#212256" stroke-width="0.001" fill="#212256" />
            <path d="M0.28237399 0.56603002L0.626257 0.43656298L0.59373497 0.50290197z" stroke="#212256" stroke-width="0.001" fill="#212256" />
            <path d="M0.37054198 0.320367L0.684062 0.27969399L0.626257 0.43656298z" stroke="#212256" stroke-width="0.001" fill="#212256" />
            <path d="M0.54931199 0.12017499L0.684062 0.27969399L0.37054198 0.320367z" stroke="#212256" stroke-width="0.001" fill="#212256" />
            <path d="M0.71848499 0.10310299L0.73508298 0.130446L0.54931199 0.12017499z" stroke="#212256" stroke-width="0.001" fill="#212256" />
            <path d="M0.57835602 -0.44341298L0.64133 -0.31619098L0.45989999 -0.32808798z" stroke="#212256" stroke-width="0.001" fill="#212256" />
            <path d="M0.063702002 0.44879201L0.081009998 0.397549L0.28237399 0.56603002z" stroke="#212256" stroke-width="0.001" fill="#212256" />
            <path d="M0.26900199 0.063995003L0.194175 0.103854L0.1008 0.110633z" stroke="#212256" stroke-width="0.001" fill="#212256" />
            <path d="M0.163643 -0.66355901L0.091216996 -0.57897901L0.014449999 -0.61504101z" stroke="#212256" stroke-width="0.001" fill="#212256" />
            <path d="M-0.55708199 0.229405L-0.553586 0.603666L-0.62660598 0.50919902z" stroke="#212256" stroke-width="0.001" fill="#212256" />
            <path d="M0.403416 0.69436901L0.49557799 0.61909198L0.44703298 0.66195297z" stroke="#212256" stroke-width="0.001" fill="#212256" />
            <path d="M0.071617998 0.69374299L0.28237399 0.56603002L0.16174699 0.80322498z" stroke="#212256" stroke-width="0.001" fill="#212256" />
            <path d="M-0.251836 0.59175997L-0.211838 0.82892501L-0.29359701 0.81346398z" stroke="#212256" stroke-width="0.001" fill="#212256" />
            <path d="M-0.36981698 -0.558182L-0.32761099 -0.60523098L-0.31341999 -0.50350898z" stroke="#212256" stroke-width="0.001" fill="#212256" />
            <path d="M-0.42048001 -0.46875301L-0.36981698 -0.558182L-0.35807299 -0.47400501z" stroke="#212256" stroke-width="0.001" fill="#212256" />
            <path d="M-0.26476201 -0.61597102L-0.224886 -0.65698701L-0.19973799 -0.57688701z" stroke="#212256" stroke-width="0.001" fill="#212256" />
            <path d="M-0.224886 -0.65698701L-0.139412 -0.67557102L-0.154925 -0.60026001z" stroke="#212256" stroke-width="0.001" fill="#212256" />
            <path d="M-0.26476201 -0.61597102L-0.32761099 -0.60523098L-0.27083399 -0.65630102z" stroke="#212256" stroke-width="0.001" fill="#212256" />
            <path d="M-0.24498699 -0.65028601L-0.27083399 -0.65630102L-0.225408 -0.688326z" stroke="#212256" stroke-width="0.001" fill="#212256" />
            <path d="M-0.38435098 0.13181799L-0.17063699 0.053376L-0.17415699 0.202213z" stroke="#212256" stroke-width="0.001" fill="#212256" />
            <path d="M-0.031801 -0.018147999L-0.026652 0.010001L-0.14887699 0.017255z" stroke="#212256" stroke-width="0.001" fill="#212256" />
            <path d="M-0.387526 0.23041799L-0.17415699 0.202213L-0.17119599 0.325385z" stroke="#212256" stroke-width="0.001" fill="#212256" />
            <path d="M-0.14887699 0.017255L-0.021463999 0.034196998L-0.157559 0.10982099z" stroke="#212256" stroke-width="0.001" fill="#212256" />
            <path d="M0.297515 0.037606999L0.408459 -0.037983L0.298031 0.061393998z" stroke="#212256" stroke-width="0.001" fill="#212256" />
    </g>
</g>
</svg>